<svg width="2048" height="2048" viewBox="0 0 2048 2048" fill="none" xmlns="http://www.w3.org/2000/svg">
<path d="M1466.93 884.55C1468.62 887.053 1470 889.313 1470 889.573C1470 889.833 1472.25 893.444 1475 897.597C1477.75 901.749 1480 905.327 1480 905.548C1480 905.769 1483.04 910.635 1486.75 916.363C1495.03 929.139 1503.43 942.434 1508.52 950.797C1510.62 954.26 1512.68 957.3 1513.09 957.553C1513.5 957.806 1516.85 953.173 1520.55 947.257C1524.24 941.34 1529.7 932.675 1532.68 928C1535.66 923.325 1542.17 912.975 1547.15 905C1552.13 897.025 1557.75 888.138 1559.65 885.25L1563.11 880H1587.05C1600.22 880 1611 880.223 1611 880.495C1611 880.989 1600.28 897.912 1588.5 916C1577.89 932.292 1571.58 942.14 1565.1 952.5C1561.66 958 1555.76 967.225 1551.97 973C1548.19 978.775 1545.08 984.252 1545.05 985.17C1545.02 986.089 1553.63 1000.49 1564.17 1017.17C1574.71 1033.85 1587.16 1053.57 1591.82 1061C1596.49 1068.43 1602.03 1077.06 1604.15 1080.19C1606.27 1083.33 1608 1086.07 1608 1086.3C1608 1086.52 1610.03 1089.79 1612.5 1093.56C1614.97 1097.32 1617 1100.77 1617 1101.2C1617 1101.64 1606.25 1102 1593.11 1102H1569.22L1561.93 1090.25C1557.91 1083.79 1554.01 1077.6 1553.26 1076.5C1551.26 1073.58 1530.38 1040.54 1521.39 1026.06C1513.77 1013.79 1513.64 1013.65 1512.08 1015.91C1509.88 1019.09 1505.6 1025.85 1481.2 1064.64C1469.48 1083.26 1459.3 1099.3 1458.58 1100.27C1457.37 1101.89 1455.22 1102.01 1433.14 1101.77L1409.03 1101.5L1421.26 1082.97C1438.7 1056.57 1460.96 1022.66 1470.83 1007.5C1475.48 1000.35 1480.61 992.569 1482.23 990.209C1483.86 987.849 1484.93 985.269 1484.63 984.475C1484.32 983.682 1468.76 960.132 1450.04 932.144C1431.32 904.155 1416 880.973 1416 880.628C1416 880.282 1426.77 880 1439.93 880H1463.86L1466.93 884.55Z" fill="#FF0000"/>
<path d="M474 773.567V968.135L471.75 967.447C470.512 967.068 466.981 965.747 463.901 964.511L458.303 962.263L452.632 964.57C449.513 965.839 446.07 967.16 444.981 967.506C443.011 968.131 443 967.048 443 773.567V579H458.5H474V773.567Z" fill="#012FA7"/>
<path d="M356 799.452V816.904L351.25 820.128C306.084 850.785 274.515 902.911 268.5 956.766L267.8 963.031L296.15 962.766L324.5 962.5L324.76 918.25L325.021 874H340.51H356V978V1082H340.5H325V1038V994H296.5C270.818 994 268 994.161 268 995.631C268 999.699 271.355 1018.37 273.589 1026.74C280.104 1051.14 292.773 1076.62 308.266 1096.5C316.093 1106.54 331.527 1122 340.02 1128.31C343.584 1130.96 347.625 1134.04 349 1135.16C350.375 1136.27 352.512 1137.66 353.75 1138.25C355.959 1139.3 356 1139.64 356 1157.16C356 1170.81 355.706 1174.98 354.75 1174.92C354.063 1174.88 351.475 1173.56 349 1171.99C346.525 1170.42 342.194 1167.78 339.375 1166.13C325.781 1158.16 299.917 1135.77 288.704 1122.27C245.639 1070.43 228.258 1004.54 240.091 938C246.174 903.792 260.587 871.219 282.338 842.522C290.284 832.037 311.255 811.094 322 802.911C335.482 792.643 351.834 782.238 354.75 782.072C355.705 782.017 356 786.119 356 799.452Z" fill="#012FA7"/>
<path d="M414.753 823.667L414.5 980.333L411.5 981.281C409.85 981.803 403.506 984.203 397.403 986.615C391.299 989.027 385.787 991 385.153 991C384.287 991 384 950.645 384 829V667H399.503H415.006L414.753 823.667Z" fill="#012FA7"/>
<path d="M496.5 1007.44L532.5 1021.85L532.759 1074.42L533.018 1127H517.509H502V1085.21V1043.42L480.187 1034.73L458.375 1026.04L436.687 1034.64L415 1043.24V1085.12V1127H399.491H383.982L384.241 1074.41L384.5 1021.81L391.5 1018.99C395.35 1017.44 399.175 1015.93 400 1015.64C400.825 1015.34 413.65 1010.16 428.5 1004.12C443.35 998.084 456.625 993.117 458 993.085C459.375 993.053 476.7 999.511 496.5 1007.44Z" fill="#012FA7"/>
<path d="M473.765 1096.75L474.029 1127H458.515H443V1096.47V1065.95L458.25 1066.22L473.5 1066.5L473.765 1096.75Z" fill="#012FA7"/>
<path d="M390.667 1157.07C409.784 1165.28 443.85 1170.8 467 1169.45C486.769 1168.29 509.708 1163.58 524.94 1157.55C528.481 1156.15 531.755 1155 532.214 1155C532.673 1155 532.925 1162.49 532.774 1171.65L532.5 1188.3L521 1191.68C479.403 1203.9 436.462 1203.59 392.5 1190.76L384.5 1188.42L384.226 1171.71C384.062 1161.74 384.331 1155 384.893 1155C385.411 1155 388.009 1155.93 390.667 1157.07Z" fill="#012FA7"/>
<path d="M533 829C533 972.021 532.825 991 531.506 991C530.685 991 523.71 988.463 516.006 985.362L502 979.725V823.362V667H517.5H533V829Z" fill="#012FA7"/>
<path d="M570.221 786.307C606.936 808.033 635.832 838.211 655.147 875C658.179 880.775 661.488 887.75 662.502 890.5C663.515 893.25 664.66 895.95 665.046 896.5C666.755 898.937 673.508 921.64 676.043 933.471C680.073 952.284 681.216 986.928 678.476 1007.22C670.637 1065.27 643.562 1113.76 597.925 1151.51C589.242 1158.69 564.209 1175 561.872 1175C561.393 1175 561 1167 561 1157.22V1139.43L564.176 1137.56C565.923 1136.52 568.06 1135.11 568.926 1134.41C569.792 1133.71 573.875 1130.48 578 1127.23C602.975 1107.53 623.297 1080.03 635.448 1049.5C636.98 1045.65 638.62 1041.6 639.093 1040.5C641.887 1034 647.692 1007.86 648.198 999.5L648.5 994.5L604.75 994.239L561 993.979V933.989V874H576.5H592V918.5V963H619.941C635.309 963 648.073 962.663 648.306 962.25C649.204 960.663 646.844 945.149 643.872 933.1C635.535 899.303 617.775 867.715 593.524 843.553C584.602 834.663 570.661 823.19 564.25 819.46L561 817.569V799.784C561 788.946 561.379 782 561.971 782C562.505 782 566.218 783.938 570.221 786.307Z" fill="#012FA7"/>
<path fill-rule="evenodd" clip-rule="evenodd" d="M858 882.888C891.955 892.178 910 915.279 910 949.457C910 981.237 894.857 1005.39 867.5 1017.25C854.981 1022.67 849.531 1023.29 810.262 1023.73L774.023 1024.13L773.762 1063.32L773.5 1102.5L750.25 1102.77L727 1103.04V991.475V879.914L788.25 880.238C848.752 880.558 849.604 880.591 858 882.888ZM774 952.691C774 925.242 774.284 917.037 775.25 916.597C775.938 916.284 789.325 916.196 805 916.401C828.255 916.705 834.494 917.086 838.903 918.471C849.471 921.791 856.732 927.995 859.872 936.388C866.138 953.135 861.334 972.265 848.749 980.675C839.775 986.673 836.541 987.179 803.75 987.723L774 988.216V952.691Z" fill="#012FA7"/>
<path fill-rule="evenodd" clip-rule="evenodd" d="M1075.2 881.017C1088.8 883.627 1091.35 884.323 1099.09 887.536C1109.09 891.694 1113.63 894.737 1120.94 902.189C1129.11 910.528 1133.18 918.943 1135.58 932.5C1138.73 950.284 1135.92 967.136 1127.49 981.011C1120.49 992.544 1105.52 1004.14 1093.75 1007.16C1091.14 1007.83 1089.01 1008.86 1089.03 1009.44C1089.04 1010.02 1092.84 1016.35 1097.47 1023.5C1105.61 1036.06 1113.81 1048.82 1119 1056.97C1120.38 1059.13 1127.42 1070.12 1134.65 1081.38C1141.88 1092.65 1147.55 1102.12 1147.23 1102.43C1146.92 1102.74 1135.09 1103 1120.94 1103H1095.21L1092.24 1098.25C1086.52 1089.11 1058.62 1043.48 1057.24 1041C1056.47 1039.62 1053.06 1034 1049.67 1028.5L1043.48 1018.5H1016.49H989.5L989.239 1060.75L988.978 1103H965.489H942V991.5V880H1005.95C1045.15 880 1071.95 880.394 1075.2 881.017ZM989 949.139C989 919.536 989.131 917.108 990.75 916.623C991.712 916.335 1007.8 916.266 1026.5 916.47C1062.15 916.859 1065.78 917.26 1074.5 921.76C1079.17 924.169 1084 929.046 1086.64 934C1088.11 936.774 1088.5 939.679 1088.5 948C1088.5 957.486 1088.24 958.996 1085.79 963.638C1082.43 970.014 1076.37 975.296 1069.08 978.221C1063.71 980.372 1062.07 980.471 1026.25 980.795L989 981.131V949.139Z" fill="#012FA7"/>
<path fill-rule="evenodd" clip-rule="evenodd" d="M1294.51 876.971C1344.94 881.522 1378.67 910.368 1389.27 958C1391.07 966.09 1391.39 970.764 1391.39 989.5C1391.39 1014.47 1390.03 1023.24 1383.54 1040.05C1372.97 1067.41 1355.43 1085.28 1327.5 1097.14C1312.22 1103.63 1286.91 1106.94 1266.96 1105.07C1246.08 1103.1 1228.72 1098.03 1216.75 1090.39C1207 1084.17 1204.83 1082.46 1198.13 1075.7C1189.55 1067.04 1183.96 1059.12 1179.27 1049C1172.21 1033.76 1170.88 1029.03 1168.46 1010.73C1164.84 983.253 1168.82 952.797 1178.75 932C1188.97 910.602 1209.12 892.272 1231.5 884.008C1248.88 877.592 1272.35 874.971 1294.51 876.971ZM1243.5 923.558C1248.65 920.271 1261.2 915.392 1266.5 914.616C1272.94 913.673 1295.57 914.856 1300.3 916.383C1313.45 920.631 1326.51 930.985 1332.85 942.19C1340.02 954.843 1344 971.899 1344 989.979C1344 1029.53 1328.92 1055.86 1300.87 1065.27C1292.21 1068.18 1268.54 1068.44 1259.76 1065.72C1243.34 1060.65 1229.04 1047.24 1222.21 1030.5C1217.28 1018.43 1215.99 1012.03 1215.35 996.5C1214.61 978.608 1215.78 968.447 1220.05 955.685C1224.81 941.459 1232.97 930.275 1243.5 923.558Z" fill="#012FA7"/>
<path d="M1684.98 896C1689.83 904.525 1701.64 925.318 1711.22 942.207L1728.62 972.914L1732.53 966.207C1734.67 962.518 1737.28 957.962 1738.31 956.082C1739.34 954.202 1742.68 948.352 1745.73 943.082C1748.79 937.812 1752.41 931.475 1753.79 929C1755.16 926.525 1757.04 923.375 1757.97 922C1758.89 920.625 1760.59 917.7 1761.73 915.5C1762.88 913.3 1767.84 904.525 1772.75 896L1781.67 880.5L1806.34 880.233C1819.9 880.085 1831 880.31 1831 880.733C1831 881.155 1828.82 885.1 1826.16 889.5C1823.49 893.9 1810.82 914.825 1798 936C1785.18 957.175 1773.55 976.525 1772.15 979C1770.76 981.475 1769.37 983.725 1769.06 984C1768.75 984.275 1767.4 986.525 1766.05 989C1764.7 991.475 1760.99 997.69 1757.8 1002.81L1752 1012.12V1057.58V1103.04L1728.75 1102.77L1705.5 1102.5L1705 1056L1704.5 1009.5L1698.91 1000.5C1695.84 995.55 1689.99 985.965 1685.91 979.2C1681.84 972.435 1675.04 961.185 1670.81 954.2C1666.58 947.215 1661.44 938.575 1659.39 935C1657.33 931.425 1654.89 927.375 1653.96 926C1651.16 921.889 1633 891.976 1633 891.489C1633 891.242 1631.41 888.547 1629.46 885.502L1625.92 879.965L1651.03 880.233L1676.14 880.5L1684.98 896Z" fill="#012FA7"/>
<path fill-rule="evenodd" clip-rule="evenodd" d="M1243.5 923.558C1248.65 920.271 1261.2 915.392 1266.5 914.616C1272.94 913.673 1295.57 914.856 1300.3 916.383C1313.45 920.631 1326.51 930.985 1332.85 942.19C1340.02 954.843 1344 971.899 1344 989.979C1344 1029.53 1328.92 1055.86 1300.87 1065.27C1292.21 1068.18 1268.54 1068.44 1259.76 1065.72C1243.34 1060.65 1229.04 1047.24 1222.21 1030.5C1217.28 1018.43 1215.99 1012.03 1215.35 996.5C1214.61 978.608 1215.78 968.447 1220.05 955.685C1224.81 941.459 1232.97 930.275 1243.5 923.558ZM774 952.691C774 925.242 774.284 917.037 775.25 916.597C775.938 916.284 789.325 916.196 805 916.401C828.255 916.705 834.494 917.086 838.903 918.471C849.471 921.791 856.732 927.995 859.872 936.388C866.138 953.135 861.334 972.265 848.749 980.675C839.775 986.673 836.541 987.179 803.75 987.723L774 988.216V952.691ZM989 949.139C989 919.536 989.131 917.108 990.75 916.623C991.712 916.335 1007.8 916.266 1026.5 916.47C1062.15 916.859 1065.78 917.26 1074.5 921.76C1079.17 924.169 1084 929.046 1086.64 934C1088.11 936.774 1088.5 939.679 1088.5 948C1088.5 957.486 1088.24 958.996 1085.79 963.638C1082.43 970.014 1076.37 975.296 1069.08 978.221C1063.71 980.372 1062.07 980.471 1026.25 980.795L989 981.131V949.139ZM1265.39 1154.52C1263.34 1151.72 1263.7 1148.33 1266.22 1146.56C1269.22 1144.46 1271.71 1144.6 1272.96 1146.93C1274.65 1150.09 1274.18 1151.37 1270.38 1153.96C1266.88 1156.34 1266.74 1156.36 1265.39 1154.52ZM740 1161V1154V1147H746.935C754.038 1147 758.875 1148.21 760.214 1150.31C761.843 1152.87 760.986 1156.87 758.365 1158.93C756.207 1160.63 754.308 1161 747.865 1161H740ZM844 1167.23C844 1166.99 845.178 1163.01 846.618 1158.4C848.058 1153.78 849.529 1150 849.888 1150C850.508 1150 855 1167.23 855 1167.23C855.005 1167.72 852.913 1167.36 849.75 1167.47C846.587 1167.57 844 1167.47 844 1167.23ZM1100 1167.22C1100 1166.98 1101.18 1163.01 1102.62 1158.4C1104.06 1153.78 1105.52 1150 1105.87 1150.01C1106.59 1150.02 1112.05 1166.28 1111.51 1166.82C1110.99 1167.34 1100 1167.72 1100 1167.22ZM1261.02 1181.01C1255.58 1178.75 1254.99 1173.15 1259.7 1168.44C1261.33 1166.81 1261.48 1166.82 1262.46 1168.47C1263.03 1169.43 1264.96 1172.16 1266.75 1174.55C1268.54 1176.93 1270 1179.32 1270 1179.86C1270 1181.51 1264.06 1182.27 1261.02 1181.01Z" fill="white"/>
<path fill-rule="evenodd" clip-rule="evenodd" d="M761.627 1139.48C768.748 1141.6 771.276 1144.67 771.796 1151.85C772.308 1158.93 770.401 1163.24 765.475 1166.15L762.073 1168.15L768.489 1177.75C772.018 1183.03 774.675 1187.72 774.394 1188.17C774.112 1188.63 771.466 1189 768.512 1189C763.034 1189 760 1184.43 760 1184.43C760 1184.43 758.263 1182.69 754.051 1174.67L751.601 1170H745.838H740.075L739.788 1179.25L739.5 1188.5H734H728.5L728.231 1164.52C728.084 1151.33 728.182 1139.97 728.45 1139.27C729.18 1137.37 755.068 1137.53 761.627 1139.48ZM740 1161V1154V1147H746.935C754.038 1147 758.875 1148.21 760.214 1150.31C761.843 1152.87 760.986 1156.87 758.365 1158.93C756.207 1160.63 754.308 1161 747.865 1161H740Z" fill="#012FA7"/>
<path d="M819.807 1143.11L819.5 1147.23L805.75 1147.06L792 1146.9V1152.95V1159H805H818V1163.5V1168H805H792V1174V1180H806.5H821V1184.52V1189.04L800.75 1188.77L780.5 1188.5L780.233 1163.75L779.965 1139H800.04H820.115L819.807 1143.11Z" fill="#012FA7"/>
<path fill-rule="evenodd" clip-rule="evenodd" d="M857.301 1140.75C857.595 1141.71 859.398 1146.78 861.308 1152C863.219 1157.22 866.43 1166.22 868.444 1172C870.459 1177.78 872.533 1183.28 873.054 1184.24C875.138 1188.06 874.268 1189 868.637 1189H863.274L861.613 1183.75C859.056 1175.67 859.395 1175.88 849.536 1176.21L840.742 1176.5L838.621 1182.5C836.502 1188.49 836.496 1188.5 832.136 1188.81C824.927 1189.33 824.8 1189.06 828.11 1180.31C829.735 1176.02 832.684 1168 834.664 1162.5C836.644 1157 839.318 1149.58 840.606 1146C841.894 1142.42 842.96 1139.39 842.974 1139.25C842.988 1139.11 846.098 1139 849.883 1139C855.569 1139 856.86 1139.3 857.301 1140.75ZM844 1167.23C844 1166.99 845.178 1163.01 846.618 1158.4C848.058 1153.78 849.529 1150 849.888 1150C850.508 1150 855 1167.23 855 1167.23C855.005 1167.72 852.913 1167.36 849.75 1167.47C846.587 1167.57 844 1167.47 844 1167.23Z" fill="#012FA7"/>
<path d="M891.5 1159.25V1179.5L904.75 1179.78L918 1180.06V1184.55V1189.04L899.25 1188.77L880.5 1188.5L880.233 1163.75L879.965 1139L885.733 1139L891.5 1139V1159.25Z" fill="#012FA7"/>
<path d="M984 1143V1147L971.75 1147.01C954.919 1147.03 955 1147 955 1153.62V1159H968.5H982V1163.5V1168H968.45H954.9L955.2 1173.75L955.5 1179.5L970.806 1179.78L986.112 1180.05L985.806 1184.28L985.5 1188.5H965H944.5L944.233 1163.75L943.965 1139H963.983H984V1143Z" fill="#012FA7"/>
<path d="M1022.06 1139C1026.2 1140.15 1030.58 1144.38 1031.5 1148.11C1032.04 1150.28 1031.75 1150.83 1029.82 1151.35C1025.02 1152.64 1022.16 1152 1019.15 1149C1016.95 1146.8 1015.21 1146 1012.62 1146C1007.72 1146 1004.07 1147.89 1003.33 1150.81C1002.43 1154.4 1005.69 1156.39 1016.83 1159.08C1027.64 1161.68 1031.09 1164.02 1032.86 1169.94C1035.07 1177.31 1031.36 1184.56 1023.7 1187.81C1018.95 1189.83 1003.67 1189.33 998.739 1186.99C994.656 1185.06 990 1179.54 990 1176.63C990 1173.92 1000.36 1172.88 1001.36 1175.49C1001.68 1176.32 1003.41 1177.89 1005.22 1178.99C1013.13 1183.82 1025.78 1178.89 1021.65 1172.59C1019.95 1170 1017.08 1168.76 1008.5 1166.94C995.77 1164.23 991.373 1159.87 992.243 1150.82C992.783 1145.21 994.84 1142.48 1000.5 1139.88C1004.99 1137.82 1016.17 1137.36 1022.06 1139Z" fill="#012FA7"/>
<path d="M1079.17 1142.96L1079.55 1146.93L1071.52 1147.21L1063.5 1147.5L1063.23 1168.25L1062.96 1189H1057.48H1052V1168.57C1052 1145.16 1052.67 1146.63 1042.24 1147.13C1036.63 1147.39 1036.49 1147.33 1036.18 1144.61C1035.51 1138.91 1035.16 1139 1057.86 1139H1078.79L1079.17 1142.96Z" fill="#012FA7"/>
<path fill-rule="evenodd" clip-rule="evenodd" d="M1113.3 1140.75C1113.6 1141.71 1115.49 1147 1117.51 1152.5C1123.55 1168.96 1130 1187.42 1130 1188.23C1130 1188.66 1127.61 1189 1124.69 1189H1119.37L1117.06 1182.46L1114.76 1175.93L1105.75 1176.21L1096.74 1176.5L1094.62 1182.5C1092.5 1188.49 1092.5 1188.5 1088.14 1188.81C1080.92 1189.33 1080.8 1189.06 1084.14 1180.31C1085.78 1176.02 1088.65 1168.22 1090.52 1163C1092.38 1157.78 1095.05 1150.35 1096.43 1146.5C1097.82 1142.65 1098.96 1139.39 1098.97 1139.25C1098.99 1139.11 1102.1 1139 1105.88 1139C1111.57 1139 1112.86 1139.3 1113.3 1140.75ZM1100 1167.22C1100 1166.98 1101.18 1163.01 1102.62 1158.4C1104.06 1153.78 1105.52 1150 1105.87 1150.01C1106.59 1150.02 1112.05 1166.28 1111.51 1166.82C1110.99 1167.34 1100 1167.72 1100 1167.22Z" fill="#012FA7"/>
<path d="M1175.4 1143.21L1175.5 1146.93L1167.5 1147.21L1159.5 1147.5V1168.25V1189L1153.77 1189L1148.04 1189L1147.77 1168.25L1147.5 1147.5L1140.1 1147.38C1132.72 1147.25 1132.69 1147.24 1132.38 1144.38C1131.69 1138.27 1130.97 1138.45 1154.13 1139L1175.29 1139.5L1175.4 1143.21Z" fill="#012FA7"/>
<path d="M1220 1143V1147H1206H1192V1153V1159H1205H1218V1163.5V1168H1205.09H1192.19L1191.84 1173.58C1191.65 1176.66 1191.69 1179.36 1191.92 1179.58C1192.15 1179.81 1198.78 1180 1206.67 1180H1221V1184.52V1189.04L1200.75 1188.77L1180.5 1188.5L1180.23 1163.75L1179.96 1139H1199.98H1220V1143Z" fill="#012FA7"/>
<path fill-rule="evenodd" clip-rule="evenodd" d="M1275.78 1139.53C1285.67 1143.49 1285.06 1154.51 1274.65 1160.03C1272.09 1161.39 1270 1162.98 1270 1163.57C1270 1164.82 1276.13 1173 1277.06 1173C1277.66 1173 1280.14 1167.68 1281.38 1163.75C1281.96 1161.93 1283.89 1161.6 1287.75 1162.63C1290.78 1163.44 1290.61 1165.85 1287 1172.99C1284.11 1178.73 1284.07 1178.97 1285.94 1179.97C1287 1180.53 1289.25 1181 1290.93 1181C1293.84 1181 1294 1181.2 1294 1185V1189H1289.21C1286.58 1189 1282.87 1188.21 1280.96 1187.24C1277.68 1185.57 1277.32 1185.57 1274 1187.19C1268.53 1189.87 1257.21 1189.62 1252.91 1186.72C1248.16 1183.51 1246.85 1180.52 1247.27 1173.75C1247.56 1169.03 1248.15 1167.44 1250.56 1164.9C1252.18 1163.19 1254.56 1161.39 1255.85 1160.89C1257.57 1160.22 1258.01 1159.5 1257.49 1158.24C1256.04 1154.71 1255.78 1147.95 1256.97 1145.06C1259.52 1138.91 1268 1136.42 1275.78 1139.53ZM1265.39 1154.52C1263.34 1151.72 1263.7 1148.33 1266.22 1146.56C1269.22 1144.46 1271.71 1144.6 1272.96 1146.93C1274.65 1150.09 1274.18 1151.37 1270.38 1153.96C1266.88 1156.34 1266.74 1156.36 1265.39 1154.52ZM1261.02 1181.01C1255.58 1178.75 1254.99 1173.15 1259.7 1168.44C1261.33 1166.81 1261.48 1166.82 1262.46 1168.47C1263.03 1169.43 1264.96 1172.16 1266.75 1174.55C1268.54 1176.93 1270 1179.32 1270 1179.86C1270 1181.51 1264.06 1182.27 1261.02 1181.01Z" fill="#012FA7"/>
<path d="M1331.29 1163.75L1331.07 1188.5H1325.79H1320.5L1320.23 1163.75L1319.96 1139H1325.73H1331.5L1331.29 1163.75Z" fill="#012FA7"/>
<path d="M1354.92 1142.32C1360.29 1151.95 1372.26 1172.57 1372.84 1173.2C1373.2 1173.59 1373.36 1166.05 1373.19 1156.45L1372.87 1139L1378.19 1139H1383.5L1383.22 1164L1382.93 1189H1376.49H1370.05L1368.18 1185.25C1366.28 1181.46 1352.91 1157.78 1351.1 1155C1350.44 1153.99 1350.1 1159.3 1350.06 1171.31L1350 1189.11L1345.25 1188.81L1340.5 1188.5L1340.23 1163.8L1339.96 1139.1L1346.23 1138.8C1349.68 1138.63 1352.56 1138.5 1352.64 1138.5C1352.72 1138.5 1353.74 1140.22 1354.92 1142.32Z" fill="#012FA7"/>
<path d="M1403.31 1150.25C1405.26 1156.44 1407.98 1165.1 1409.35 1169.5C1410.72 1173.9 1412.07 1176.82 1412.36 1176C1412.64 1175.18 1415.4 1166.51 1418.48 1156.75L1424.07 1139H1430.01H1435.95L1432.89 1147.25C1431.2 1151.79 1428.72 1158.42 1427.37 1162C1426.02 1165.58 1423.54 1172.32 1421.85 1177C1417.36 1189.44 1417.74 1189 1411.59 1189C1406.69 1189 1406.15 1188.77 1405.16 1186.25C1402.7 1179.99 1388 1139.96 1388 1139.5C1388 1139.22 1390.64 1139 1393.88 1139H1399.75L1403.31 1150.25Z" fill="#012FA7"/>
<path d="M1480 1143V1147L1467.25 1147.07C1460.24 1147.11 1453.78 1147.45 1452.9 1147.82C1451.72 1148.32 1451.33 1149.8 1451.4 1153.5L1451.5 1158.5L1464.75 1158.78L1478 1159.06V1163.53V1168H1464.44H1450.88L1451.19 1173.75L1451.5 1179.5L1466.25 1179.78L1481 1180.05V1184.55V1189.04L1460.75 1188.77L1440.5 1188.5L1440.23 1163.75L1439.96 1139H1459.98H1480V1143Z" fill="#012FA7"/>
<path d="M1518.08 1139.14C1522.49 1140.46 1526.57 1144.35 1527.5 1148.11C1528.04 1150.28 1527.75 1150.83 1525.82 1151.35C1520.84 1152.68 1517.83 1152.03 1515 1149C1512.88 1146.73 1511.31 1146 1508.55 1146C1503.3 1146 1499 1148.48 1499 1151.5C1499 1154.75 1501.65 1156.27 1512 1158.99C1526.42 1162.78 1529 1165.11 1529 1174.39C1529 1178.82 1528.51 1180.43 1526.38 1182.96C1522.47 1187.61 1518.37 1190.55 1507.89 1190.5C1496.11 1190.45 1490.71 1186.64 1487.24 1180L1484.9 1175.5L1487.2 1174.85C1492.08 1173.47 1494 1172 1496.5 1175.5C1497.21 1177.74 1504.08 1181 1507.89 1181C1512.08 1181 1516.38 1179.23 1517.83 1176.9C1518.9 1175.19 1518.87 1174.45 1517.64 1172.57C1515.95 1170 1513.07 1168.76 1504.5 1166.94C1491.77 1164.23 1487.37 1159.87 1488.24 1150.82C1488.78 1145.21 1490.84 1142.48 1496.5 1139.88C1501.15 1137.75 1512.17 1137.37 1518.08 1139.14Z" fill="#012FA7"/>
<path d="M1575.17 1143L1575.55 1147H1567.78H1560V1168.05V1189.1L1554.25 1188.8L1548.5 1188.5L1548.23 1168.55C1548.03 1154.14 1547.62 1148.37 1546.73 1147.78C1546.05 1147.33 1542.58 1147.05 1539 1147.16L1532.5 1147.36L1532.19 1143.18L1531.89 1139H1553.34H1574.79L1575.17 1143Z" fill="#012FA7"/>
<path d="M1596.09 1142C1596.5 1143.38 1598.04 1148.32 1599.53 1153C1601.02 1157.68 1603.03 1164.2 1604.01 1167.5C1604.99 1170.8 1606.02 1172.82 1606.3 1172C1608.87 1164.58 1616.01 1141.23 1616 1140.25C1616 1139.36 1618.22 1139 1623.75 1139H1631.5L1631.29 1163.75L1631.07 1188.5H1626.29H1621.5L1620.96 1171.5C1620.67 1162.15 1620.33 1155.18 1620.22 1156C1620.1 1156.82 1617.71 1164.61 1614.9 1173.3L1609.78 1189.1L1605.74 1188.8L1601.71 1188.5L1597.44 1175.5C1595.1 1168.35 1592.5 1160.25 1591.67 1157.5C1590.2 1152.62 1590.16 1152.93 1590.17 1170.5L1590.18 1188.5H1585.34H1580.5L1580.23 1163.71L1579.96 1138.92L1587.66 1139.21C1594.9 1139.48 1595.41 1139.65 1596.09 1142Z" fill="#012FA7"/>
<path d="M1680 1143V1147L1667.5 1147.12C1660.62 1147.19 1654.55 1147.36 1654 1147.5C1653.45 1147.64 1652.55 1147.81 1652 1147.88C1651.45 1147.94 1651 1150.47 1651 1153.5V1159H1664.5H1678V1163.5V1168H1664.45H1650.9L1651.2 1173.75L1651.5 1179.5L1666.5 1180L1681.5 1180.5V1184.5V1188.5H1661H1640.5L1640.23 1163.75L1639.96 1139H1659.98H1680V1143Z" fill="#012FA7"/>
<path d="M1705.8 1147C1708.19 1151.12 1710.81 1155.85 1711.63 1157.5C1712.44 1159.15 1715 1163.7 1717.31 1167.6L1721.5 1174.7L1721.15 1156.85L1720.81 1139L1726.15 1139H1731.5L1731.34 1163.75L1731.18 1188.5L1724.67 1188.79L1718.17 1189.09L1714.27 1181.79C1712.12 1177.78 1707.7 1169.89 1704.44 1164.26L1698.5 1154.02L1698.23 1171.56L1697.95 1189.11L1693.23 1188.8L1688.5 1188.5L1688.23 1163.7L1687.96 1138.91L1694.71 1139.2L1701.45 1139.5L1705.8 1147Z" fill="#012FA7"/>
<path d="M1779.48 1143.33L1779.5 1147.17L1771.5 1147.33L1763.5 1147.5L1763.23 1168.5L1762.96 1189.5L1757.48 1189.16L1752 1188.81V1167.91V1147H1744H1736V1142.98V1138.96L1757.73 1139.23L1779.45 1139.5L1779.48 1143.33Z" fill="#012FA7"/>
</svg>
